<svg width="24" height="24" viewBox="0 0 24 24" fill="none" xmlns="http://www.w3.org/2000/svg">
<path fill-rule="evenodd" clip-rule="evenodd" d="M4.36364 0C3.20633 0 2.09642 0.459739 1.27808 1.27808C0.459739 2.09642 0 3.20633 0 4.36364V19.6364C0 20.7937 0.459739 21.9036 1.27808 22.7219C2.09642 23.5403 3.20633 24 4.36364 24H19.6364C20.7937 24 21.9036 23.5403 22.7219 22.7219C23.5403 21.9036 24 20.7937 24 19.6364V4.36364C24 3.20633 23.5403 2.09642 22.7219 1.27808C21.9036 0.459739 20.7937 0 19.6364 0H4.36364ZM12.3709 3.81818H14.9749C14.9749 5.56364 16.4498 7.53818 18.6949 7.53818V10.1411C17.1491 10.0342 15.828 9.78109 14.9749 9.02509V15.7189C14.9749 17.5789 13.5044 20.1818 10.1411 20.1818C6.03273 20.1818 5.30618 16.4618 5.30618 15.3469C5.30618 14.232 5.96073 10.512 10.512 10.512V13.116C9.32182 12.864 7.90909 13.8589 7.90909 15.3469C7.90909 17.2069 9.02509 17.5789 10.1411 17.5789C11.2571 17.5789 12.372 16.4629 12.372 15.3469L12.3709 3.81818Z" fill="white"/>
</svg>
