<svg width="299" height="299" viewBox="0 0 299 299" fill="none" xmlns="http://www.w3.org/2000/svg">
<path fill-rule="evenodd" clip-rule="evenodd" d="M104.12 121.55C117.883 113.228 135.817 100.266 156.322 81.129C194.684 45.3262 208.367 12.3869 210.414 0.39263L231.834 8.44702C224.031 28.6704 214.231 81.5639 234.934 135.98C235.072 135.961 235.21 135.942 235.347 135.923C248.933 132.53 304.789 156.546 298.38 220.182C294.167 262.017 252.034 290.956 217.486 297.091C191.718 301.666 161.917 296.377 140.088 269.395C111.572 284.699 72.797 279.818 47.0672 266.088C15.6409 249.318 -11.2455 214.061 6.40876 155.973C20.5322 109.503 60.3004 105.9 78.4191 109.907C83.5831 111.314 93.0785 115.799 104.12 121.55ZM116.784 128.316C130.305 135.691 144.511 143.854 155.212 150.08C169.187 145.857 199.57 141.044 223.039 137.661C216.853 115.354 209.429 75.1309 213.095 33.4073C199.918 49.4 164.503 87.7085 116.784 128.316Z" fill="white"/>
</svg>
