<svg xmlns="http://www.w3.org/2000/svg" viewBox="0 0 1386 1800" fill="none">
  <style>
    /* Светлая тема — чёрный цвет */
    .icon {
      fill: #000000;
    }
    /* Тёмная тема — белый цвет */
    @media (prefers-color-scheme: dark) {
      .icon {
        fill: #ffffff;
      }
    }
  </style>
  <path class="icon" d="M1386 0C1385.89 211.956 1355.74 416.894 1299.59 610.8C1250.45 556.24 1179.22 521.929 1099.96 521.929C1097.41 521.929 1094.86 521.965 1092.32 522.035C1071.54 616.888 1035.81 706.151 987.715 787.235C1015.59 789.353 1043.76 790.429 1072.18 790.429C1171.23 790.429 1267.23 777.349 1358.53 752.828C1342.12 798.834 1333.15 848.378 1333.08 900L1333.12 904.835C1333.72 954.715 1342.63 1002.6 1358.53 1047.17C1267.23 1022.65 1171.23 1009.57 1072.18 1009.57C1043.76 1009.57 1015.59 1010.65 987.715 1012.76C1035.81 1093.85 1071.54 1183.11 1092.32 1277.96C1094.86 1278.04 1097.41 1278.07 1099.96 1278.07C1179.22 1278.07 1250.45 1243.76 1299.59 1189.2C1355.74 1383.11 1385.89 1588.05 1386 1800C1306.7 1607.24 1116.89 1471.5 895.343 1471.5C894.606 1471.5 893.873 1471.51 893.14 1471.51V1471.5C893.14 1283.15 816.641 1112.66 692.996 989.316C569.35 1112.66 492.86 1283.16 492.86 1471.5V1471.51C492.127 1471.51 491.394 1471.5 490.657 1471.5C269.114 1471.5 79.3044 1607.24 0 1800C0.115336 1588.05 30.2597 1383.11 86.4136 1189.2C135.55 1243.76 206.785 1278.07 286.036 1278.07C288.593 1278.07 291.143 1278.04 293.683 1277.96C314.46 1183.11 350.195 1093.85 398.287 1012.76C370.41 1010.65 342.241 1009.57 313.822 1009.57C214.767 1009.57 118.771 1022.65 27.4669 1047.17C43.8804 1001.17 52.8481 951.622 52.9165 900L52.8821 895.165C52.2782 845.285 43.3675 797.396 27.4669 752.828C118.771 777.349 214.767 790.429 313.822 790.429C342.241 790.429 370.41 789.353 398.287 787.235C350.195 706.151 314.46 616.888 293.683 522.035C291.143 521.965 288.593 521.929 286.036 521.929C206.785 521.929 135.55 556.24 86.4136 610.8C30.2597 416.894 0.115294 211.956 0 0C79.3039 192.763 269.114 328.496 490.657 328.496C491.39 328.496 492.127 328.49 492.86 328.487V328.496C492.86 516.843 569.359 687.34 693 810.679C816.645 687.34 893.14 516.843 893.14 328.496V328.487C893.873 328.49 894.606 328.496 895.343 328.496C1116.89 328.496 1306.7 192.763 1386 0Z"/>
</svg>